<svg xmlns="http://www.w3.org/2000/svg" viewBox="0 0 64 64">
  <defs>
    <linearGradient id="bg" x1="0" y1="0" x2="64" y2="64" gradientUnits="userSpaceOnUse">
      <stop offset="0" stop-color="#ff2d1a"/>
      <stop offset="1" stop-color="#b3170a"/>
    </linearGradient>
    <clipPath id="round">
      <rect x="0" y="0" width="64" height="64" rx="14"/>
    </clipPath>
  </defs>

  <g clip-path="url(#round)">
    <rect width="64" height="64" fill="url(#bg)"/>

    <!-- angolo a bandiera a scacchi -->
    <g>
      <rect x="0" y="0" width="20" height="20" fill="#0c0c0e"/>
      <rect x="0" y="0" width="5" height="5" fill="#f4f4f5"/>
      <rect x="10" y="0" width="5" height="5" fill="#f4f4f5"/>
      <rect x="5" y="5" width="5" height="5" fill="#f4f4f5"/>
      <rect x="15" y="5" width="5" height="5" fill="#f4f4f5"/>
      <rect x="0" y="10" width="5" height="5" fill="#f4f4f5"/>
      <rect x="10" y="10" width="5" height="5" fill="#f4f4f5"/>
      <rect x="5" y="15" width="5" height="5" fill="#f4f4f5"/>
    </g>

    <!-- silhouette auto sportiva -->
    <path
      d="M8 42 L14 42 L18 33 C19.5 30 22.5 28.5 26 28.5 L40 28.5 C43 28.5 45.5 30 47 32.5 L52 42 L58 42 L58 47 L8 47 Z"
      fill="#0c0c0e"
    />
    <path
      d="M20 33 L24.5 33 L26.5 29.5 L21.5 29.5 Z"
      fill="#ff6b57"
    />
    <path
      d="M28 33 L44 33 L41 29.5 L27 29.5 Z"
      fill="#ff6b57"
    />
    <circle cx="20" cy="47" r="6" fill="#0c0c0e"/>
    <circle cx="20" cy="47" r="3" fill="#f4f4f5"/>
    <circle cx="48" cy="47" r="6" fill="#0c0c0e"/>
    <circle cx="48" cy="47" r="3" fill="#f4f4f5"/>
  </g>
</svg>
